<mxfile host="app.diagrams.net" modified="2024-06-06T09:32:24.204Z" agent="Mozilla/5.0 (Windows NT 10.0; Win64; x64) AppleWebKit/537.36 (KHTML, like Gecko) Chrome/125.0.0.0 Safari/537.36" version="24.4.10" etag="0z0o81-7Hwtoe28kARt8" type="github">
  <diagram name="第 1 页" id="1B4ItG_nYSqVv18gXUIe">
    <mxGraphModel>
      <root>
        <mxCell id="0" />
        <mxCell id="1" parent="0" />
      </root>
    </mxGraphModel>
  </diagram>
</mxfile>
